HIERARCHY
ROOT Hips
{
	OFFSET 0.000000 0.000000 0.000000
	CHANNELS 6 Xposition Yposition Zposition Zrotation Yrotation Xrotation 
	JOINT LHipJoint
	{
		OFFSET 0.000000 0.000000 0.000000
		CHANNELS 3 Zrotation Yrotation Xrotation
		JOINT LeftUpLeg
		{
			OFFSET 1.363060 -1.794630 0.839290
			CHANNELS 3 Zrotation Yrotation Xrotation
			JOINT LeftLeg
			{
				OFFSET 2.448110 -6.726130 0.000000
				CHANNELS 3 Zrotation Yrotation Xrotation
				JOINT LeftFoot
				{
					OFFSET 2.562200 -7.039590 0.000000
					CHANNELS 3 Zrotation Yrotation Xrotation
					JOINT LeftToeBase
					{
						OFFSET 0.157640 -0.433110 2.322550
						CHANNELS 3 Zrotation Yrotation Xrotation
						End Site
						{
							OFFSET 0.000000 0.000000 0.000000
						}
					}
				}
			}
		}
	}
	JOINT RHipJoint
	{
		OFFSET 0.000000 0.000000 0.000000
		CHANNELS 3 Zrotation Yrotation Xrotation
		JOINT RightUpLeg
		{
			OFFSET -1.305520 -1.794630 0.839290
			CHANNELS 3 Zrotation Yrotation Xrotation
			JOINT RightLeg
			{
				OFFSET -2.542530 -6.985550 0.000000
				CHANNELS 3 Zrotation Yrotation Xrotation
				JOINT RightFoot
				{
					OFFSET -2.568260 -7.056230 0.000000
					CHANNELS 3 Zrotation Yrotation Xrotation
					JOINT RightToeBase
					{
						OFFSET -0.164730 -0.452590 2.363150
						CHANNELS 3 Zrotation Yrotation Xrotation
						End Site
						{
							OFFSET 0.000000 0.000000 0.000000
						}
					}
				}
			}
		}
	}
}
MOTION
Frames: 14
Frame Time: 0.008333
3.753511 17.282593 0.789402 11.969843 -81.178571 0.853052 -11.180892 0.424489 1.835510 -5.035839 8.089562 -18.120899 -2.546599 -1.663261 -2.478766 0.147245 3.971999 6.678811 1.382600 -0.000000 -34.676300 9.691404 -2.527791 1.707794 3.064433 -9.199031 -13.142398 2.143048 1.005296 -1.584944 -0.585855 -7.329097 -0.523493 -2.347700 -0.000000 -41.103300
3.744909 17.281398 0.788914 11.275898 -80.875627 1.535746 -11.147999 0.439705 1.874565 -4.987754 7.933941 -18.103712 -2.549870 -1.664626 -2.530090 0.132713 3.852703 6.712797 1.357900 -0.000000 -34.760300 9.720109 -2.523749 1.689842 3.105442 -9.267571 -13.070431 2.129609 1.003126 -1.504897 -0.596785 -7.546983 -0.654239 -2.398900 0.000000 -41.006100
3.736312 17.279937 0.788989 10.614034 -80.583282 2.177556 -11.118759 0.456901 1.901579 -4.938493 7.813368 -18.064266 -2.554632 -1.663779 -2.601457 0.115171 3.700314 6.752389 1.324500 -0.000000 -34.864500 9.745998 -2.515224 1.668226 3.142923 -9.301266 -12.963473 2.111230 1.003190 -1.439978 -0.613487 -7.805005 -0.780938 -2.457800 0.000000 -40.913500
3.727885 17.278208 0.789496 10.001920 -80.309429 2.764212 -11.094769 0.474528 1.913146 -4.889350 7.732135 -18.004244 -2.560819 -1.660907 -2.690672 0.095186 3.519444 6.796159 1.283500 -0.000000 -34.987401 9.767870 -2.502348 1.641760 3.176200 -9.299301 -12.824578 2.088592 1.005701 -1.394882 -0.635963 -8.093397 -0.900093 -2.521500 0.000000 -40.826200
3.719697 17.276274 0.790260 9.443630 -80.066764 3.292535 -11.076319 0.492972 1.909077 -4.840008 7.691983 -17.925446 -2.567810 -1.655892 -2.795756 0.073800 3.317708 6.842835 1.236500 -0.000000 -35.125600 9.785442 -2.484812 1.610128 3.206062 -9.262671 -12.657647 2.062962 1.011366 -1.372264 -0.663629 -8.400451 -1.008015 -2.586800 0.000000 -40.743300
3.711606 17.274282 0.791150 8.935720 -79.869385 3.765032 -11.062553 0.514932 1.894256 -4.789000 7.691678 -17.828848 -2.574679 -1.648684 -2.914508 0.052233 3.104391 6.890988 1.185700 -0.000001 -35.274300 9.799286 -2.463314 1.575855 3.234339 -9.195570 -12.466484 2.036072 1.021102 -1.372077 -0.695376 -8.712914 -1.101073 -2.650600 0.000001 -40.662900
3.703662 17.272327 0.792060 8.465145 -79.726197 4.186835 -11.052216 0.542970 1.876121 -4.733919 7.726804 -17.714170 -2.580287 -1.639363 -3.043040 0.031563 2.889181 6.939277 1.133499 0.000000 -35.427400 9.810160 -2.439666 1.543387 3.263090 -9.105473 -12.254884 2.009570 1.035132 -1.391935 -0.730053 -9.019081 -1.177743 -2.710499 -0.000000 -40.583000
3.695778 17.270506 0.792913 8.019254 -79.636897 4.565642 -11.044195 0.578047 1.861340 -4.672714 7.788891 -17.582544 -2.583748 -1.628376 -3.176276 0.012652 2.681556 6.986134 1.082200 0.000000 -35.580400 9.818775 -2.416294 1.516389 3.294477 -9.003086 -12.027905 1.984953 1.052767 -1.427415 -0.766059 -9.308166 -1.238626 -2.764400 -0.000000 -40.503300
3.687851 17.268848 0.793613 7.588092 -79.594209 4.912341 -11.037706 0.619187 1.853536 -4.604107 7.866315 -17.438220 -2.584508 -1.616314 -3.308478 -0.003824 2.489677 7.028751 1.033901 -0.000000 -35.728400 9.825596 -2.394737 1.495680 3.330322 -8.899849 -11.793435 1.963447 1.072878 -1.472858 -0.801833 -9.571709 -1.286459 -2.810800 -0.000000 -40.424299
3.679583 17.267334 0.794099 7.167396 -79.587123 5.236300 -11.032024 0.665188 1.855470 -4.527915 7.945842 -17.287569 -2.582332 -1.603818 -3.434258 -0.017377 2.320258 7.064472 0.990500 -0.000001 -35.868100 9.831082 -2.376014 1.480868 3.372111 -8.807511 -11.560739 1.946058 1.094372 -1.521158 -0.835354 -9.803258 -1.326010 -2.848900 -0.000000 -40.347800
3.670802 17.265946 0.794363 6.750680 -79.602706 5.547671 -11.026406 0.714974 1.869510 -4.444294 8.014335 -17.136963 -2.577114 -1.591419 -3.549006 -0.027750 2.177741 7.091097 0.953100 0.000000 -35.996300 9.835691 -2.360742 1.470980 3.421315 -8.737440 -11.338375 1.933526 1.116260 -1.564847 -0.864645 -9.999025 -1.362382 -2.878700 0.000000 -40.275300
3.661321 17.264602 0.794377 6.334387 -79.627730 5.855327 -11.020203 0.767474 1.897245 -4.354092 8.059960 -16.993501 -2.568991 -1.579633 -3.648907 -0.034901 2.064151 7.105919 0.922300 -0.000000 -36.112399 9.839842 -2.349000 1.464652 3.478336 -8.699181 -11.134587 1.926284 1.137819 -1.596986 -0.887938 -10.157250 -1.401576 -2.900400 0.000000 -40.210099
3.650953 17.263203 0.794196 5.919041 -79.649096 6.163279 -11.012921 0.821919 1.939804 -4.258942 8.073644 -16.863499 -2.558368 -1.568895 -3.731731 -0.039066 1.978840 7.107907 0.898300 0.000000 -36.215701 9.843860 -2.340763 1.460737 3.543403 -8.700027 -10.956021 1.924405 1.158484 -1.611443 -0.903878 -10.278748 -1.448701 -2.915200 0.000000 -40.154900
3.639442 17.261703 0.793854 5.507864 -79.655767 6.474759 -11.004181 0.877883 1.997691 -4.160550 8.049219 -16.752035 -2.545837 -1.559636 -3.796700 -0.040653 1.918896 7.095837 0.880200 -0.000000 -36.307700 9.848062 -2.335852 1.458280 3.616223 -8.744321 -10.807344 1.927695 1.178013 -1.603779 -0.911598 -10.366162 -1.508419 -2.924200 0.000001 -40.111500
